# xmcd CD database file
#
# Track frame offsets:
#	150
#	26085
#	48053
#	66373
#	84703
#	106352
#	130503
#
# Disc length: 2125 seconds
#
# Revision: 0
# Processed by: cddbd v1.5.1PL2 Copyright (c) Steve Scherf et al.
# Submitted via: CDex 1.51
#
DISCID=55084b07
DTITLE=Chrystian Dozza - Songs From The Land
DYEAR=2006
DGENRE=New Age
TTITLE0=Tribal
TTITLE1=Sonho Distante
TTITLE2=Terra Mãe
TTITLE3=Elf's Jig
TTITLE4=Rock City
TTITLE5=Country Friends
TTITLE6=Lachymae Pavan
EXTD=YEAR: 2006
EXTT0=
EXTT1=
EXTT2=
EXTT3=
EXTT4=
EXTT5=
EXTT6=
PLAYORDER=
